<svg xmlns="http://www.w3.org/2000/svg" viewBox="0 0 1440 320">
  <path fill="#242526" fill-opacity="1" d="M0,192L0,256L40,256L40,160L80,160L80,224L120,224L120,32L160,32L160,256L200,256L200,64L240,64L240,192L280,192L280,160L320,160L320,224L360,224L360,128L400,128L400,224L440,224L440,288L480,288L480,128L520,128L520,256L560,256L560,32L600,32L600,256L640,256L640,96L680,96L680,96L720,96L720,128L760,128L760,224L800,224L800,256L840,256L840,128L880,128L880,256L920,256L920,288L960,288L960,160L1000,160L1000,32L1040,32L1040,224L1080,224L1080,64L1120,64L1120,256L1160,256L1160,224L1200,224L1200,224L1240,224L1240,192L1280,192L1280,64L1320,64L1320,224L1360,224L1360,96L1400,96L1400,192L1440,192L1440,0L1400,0L1400,0L1360,0L1360,0L1320,0L1320,0L1280,0L1280,0L1240,0L1240,0L1200,0L1200,0L1160,0L1160,0L1120,0L1120,0L1080,0L1080,0L1040,0L1040,0L1000,0L1000,0L960,0L960,0L920,0L920,0L880,0L880,0L840,0L840,0L800,0L800,0L760,0L760,0L720,0L720,0L680,0L680,0L640,0L640,0L600,0L600,0L560,0L560,0L520,0L520,0L480,0L480,0L440,0L440,0L400,0L400,0L360,0L360,0L320,0L320,0L280,0L280,0L240,0L240,0L200,0L200,0L160,0L160,0L120,0L120,0L80,0L80,0L40,0L40,0L0,0L0,0Z"></path>
</svg>